<?xml version="1.0" standalone="no"?>
<!DOCTYPE svg PUBLIC "-//W3C//DTD SVG 20010904//EN"
 "http://www.w3.org/TR/2001/REC-SVG-20010904/DTD/svg10.dtd">
<svg version="1.0" xmlns="http://www.w3.org/2000/svg"
 width="753.000000pt" height="753.000000pt" viewBox="0 0 753.000000 753.000000"
 preserveAspectRatio="xMidYMid meet">
<metadata>
Created by potrace 1.14, written by Peter Selinger 2001-2017
</metadata>
<g transform="translate(0.000000,753.000000) scale(0.100000,-0.100000)"
fill="#000000" stroke="none">
<path d="M2994 7296 c-70 -44 -113 -91 -143 -155 -25 -55 -26 -60 -26 -270 0
-155 3 -225 13 -255 23 -69 71 -122 145 -162 46 -24 71 -44 78 -62 7 -17 11
-163 11 -379 0 -339 -1 -354 -21 -395 -17 -34 -309 -427 -389 -523 -9 -11 -43
-56 -76 -99 -32 -43 -64 -86 -72 -95 -39 -48 -226 -295 -241 -319 -10 -15 -22
-30 -27 -34 -6 -4 -7 -10 -3 -14 4 -4 215 -7 469 -6 290 0 478 -3 502 -10 40
-10 42 -11 343 -326 34 -35 74 -71 90 -80 24 -13 98 -15 548 -16 569 -1 542 1
601 -62 77 -82 191 -84 273 -4 111 108 58 286 -98 326 -57 14 -96 2 -171 -52
-52 -37 -54 -38 -154 -40 -198 -5 -481 -6 -496 -2 -8 3 -28 8 -45 13 -113 30
-226 115 -327 247 -65 86 -128 134 -214 162 -55 18 -47 18 -442 14 -149 -2
-272 -2 -272 0 0 6 50 80 76 113 16 20 40 51 54 69 14 19 64 83 111 144 187
242 319 421 334 452 28 60 31 116 31 573 l-1 453 -37 32 c-20 18 -85 52 -145
76 -59 24 -113 47 -119 52 -6 4 -13 6 -16 3 -2 -2 -20 8 -38 24 l-34 28 1 144
c1 140 1 143 26 165 23 20 37 22 159 22 73 1 151 1 173 1 l40 1 -1 132 c-1 73
-2 136 -3 140 -1 4 -95 7 -210 6 l-209 0 -48 -32z"/>
<path d="M4484 7318 c-4 -5 -8 -53 -10 -106 -2 -54 -6 -110 -9 -125 -3 -17 0
-30 8 -33 7 -2 88 -6 179 -7 213 -3 206 3 206 -166 0 -182 -16 -201 -257 -292
-62 -23 -102 -44 -114 -61 -17 -23 -18 -48 -17 -404 2 -532 4 -581 25 -632 10
-24 109 -163 221 -310 112 -147 264 -345 337 -440 72 -96 167 -220 210 -275
43 -56 100 -131 127 -167 91 -119 372 -485 395 -515 140 -178 296 -392 322
-440 60 -114 85 -208 89 -335 11 -319 -143 -569 -386 -628 -29 -6 -1817 -5
-1828 2 -14 9 27 77 72 118 54 50 105 70 176 69 19 0 127 -2 240 -4 215 -5
242 -10 302 -56 64 -51 152 -63 219 -30 135 66 144 253 16 337 -34 23 -51 27
-102 26 -54 -1 -70 -6 -119 -39 -101 -67 -71 -64 -767 -65 -592 -1 -635 -3
-669 -20 -31 -16 -73 -58 -160 -160 -36 -42 -62 -74 -135 -160 -38 -46 -95
-110 -125 -142 -89 -95 -73 -93 -627 -93 -329 0 -473 -3 -473 -11 0 -6 10 -19
23 -30 12 -11 44 -46 72 -77 l50 -57 1930 0 c1854 0 1933 1 2000 19 204 55
341 145 460 304 87 115 177 329 206 487 14 78 19 257 8 314 -4 23 -9 55 -12
71 -18 116 -89 291 -165 409 -32 49 -124 179 -132 186 -3 3 -33 41 -66 85
-127 168 -459 606 -487 640 -18 23 -103 135 -155 205 -31 41 -59 77 -62 80 -3
3 -39 50 -80 105 -41 55 -77 102 -80 105 -7 6 -110 142 -244 320 -55 74 -107
141 -114 148 -39 42 -102 143 -112 182 -8 31 -13 151 -14 375 -1 380 0 384 79
423 63 30 119 85 145 139 20 43 22 64 24 248 2 204 -6 272 -37 332 -23 44 -85
104 -133 128 -21 11 -41 23 -44 27 -9 11 -399 8 -406 -4z"/>
<path d="M1776 4372 c-77 -18 -147 -108 -148 -190 -1 -168 200 -258 323 -145
14 13 48 32 75 42 45 16 93 17 554 17 l505 -1 45 -27 c41 -24 310 -294 378
-380 56 -71 156 -169 179 -174 13 -4 23 -10 23 -14 0 -10 109 -25 165 -23 157
5 244 3 270 -7 17 -6 61 -30 99 -52 87 -53 147 -57 218 -15 80 47 116 156 77
231 -69 132 -200 175 -283 91 -65 -65 -81 -69 -285 -69 -137 0 -186 3 -189 12
-2 6 -9 12 -16 12 -7 0 -57 48 -112 107 -242 261 -426 442 -468 459 -36 15
-100 17 -582 19 -577 2 -572 1 -640 52 -59 44 -138 67 -188 55z"/>
<path d="M650 3772 c-8 -3 -17 -8 -20 -11 -3 -4 -18 -16 -33 -28 -16 -12 -42
-39 -58 -59 -40 -51 -42 -130 -2 -183 97 -130 170 -142 308 -47 33 23 67 43
75 45 24 6 642 4 673 -2 57 -12 115 -59 272 -223 293 -305 279 -291 326 -304
33 -9 437 -13 1649 -14 l1605 -1 65 -43 c75 -49 127 -66 179 -57 122 20 197
164 143 272 -59 115 -199 145 -302 63 -79 -63 -33 -60 -910 -59 -658 1 -808 3
-835 15 -35 14 -136 112 -354 342 -74 78 -151 152 -170 164 l-36 22 -1150 2
c-632 1 -1157 4 -1165 6 -8 2 -35 17 -60 34 -84 58 -154 81 -200 66z"/>
<path d="M1170 2830 c-121 -22 -191 -136 -154 -249 26 -77 85 -126 164 -137
56 -8 106 12 160 62 25 24 57 47 70 52 14 5 85 8 157 8 73 -1 133 3 133 7 0 5
5 5 11 1 16 -9 120 -11 126 -1 2 4 9 4 15 1 9 -6 182 -9 198 -4 7 2 93 2 105
0 6 -1 15 -1 20 0 21 4 106 1 115 -5 6 -3 10 -1 10 5 0 6 5 8 10 5 6 -4 131
-8 278 -9 273 -2 297 0 374 40 30 16 128 112 128 126 0 4 -339 8 -752 8 -414
1 -789 1 -833 2 -84 1 -122 13 -185 54 -20 14 -50 27 -66 30 -16 2 -33 6 -39
7 -5 2 -26 0 -45 -3z"/>
<path d="M1710 1702 c-105 -10 -204 -53 -276 -120 -88 -82 -135 -187 -139
-310 -2 -46 -1 -91 2 -101 4 -17 29 -18 451 -19 371 0 446 -2 444 -13 -8 -33
-56 -79 -107 -104 l-55 -27 -269 -1 -270 0 -101 -102 -102 -102 359 -1 c389
-1 436 4 535 54 66 33 158 125 190 190 14 27 31 74 38 104 14 56 17 180 6 199
-4 7 -135 10 -379 10 -205 0 -405 0 -444 1 -45 0 -73 4 -73 11 0 21 98 105
137 117 27 8 128 12 304 12 l263 0 98 100 c54 54 98 101 98 102 0 4 -674 4
-710 0z"/>
<path d="M3005 1700 c-2 -3 -2 -129 -1 -280 2 -229 6 -282 20 -320 56 -148
179 -256 329 -288 28 -6 199 -9 415 -8 l367 1 0 100 0 100 -370 1 c-411 2
-409 2 -483 69 -70 63 -76 92 -76 377 -1 136 -3 249 -6 249 -20 5 -192 4 -195
-1z"/>
<path d="M4573 1694 c-160 -33 -293 -157 -333 -313 -14 -55 -17 -111 -16 -321
l1 -255 90 -1 c50 0 96 1 102 4 9 3 13 47 12 169 0 91 2 168 5 170 3 3 165 6
360 7 310 1 356 -1 356 -14 1 -8 2 -87 3 -175 l2 -160 100 0 100 0 0 245 c1
282 -3 320 -43 404 -52 109 -133 182 -251 227 -49 19 -79 22 -242 23 -115 2
-209 -2 -246 -10z m424 -209 c51 -21 95 -57 116 -94 l18 -31 -341 0 -341 0 15
28 c20 38 54 67 106 91 40 18 66 21 218 21 133 0 181 -4 209 -15z"/>
<path d="M5463 1700 c-17 -5 -18 -28 -18 -453 l0 -448 470 3 470 3 40 23 c93
55 143 132 150 229 8 128 -69 244 -185 282 -35 11 -35 11 -31 62 9 141 -89
275 -216 295 -50 7 -654 11 -680 4z m668 -227 c27 -26 28 -69 3 -94 -20 -20
-59 -22 -377 -20 l-108 1 2 63 c1 34 3 64 5 67 1 3 104 5 228 5 217 0 227 -1
247 -22z m220 -352 c26 -32 24 -63 -6 -91 l-24 -23 -324 0 c-178 0 -329 3
-336 7 -11 7 -15 108 -5 127 2 4 155 6 340 5 l336 -1 19 -24z"/>
<path d="M2450 1316 l0 -71 222 0 221 0 0 38 c-1 20 -2 52 -2 71 l-1 34 -220
0 -220 0 0 -72z"/>
<path d="M3860 519 c-59 -6 -105 -26 -132 -56 -30 -33 -54 -100 -50 -137 l4
-36 184 0 c101 0 184 -4 184 -8 0 -5 -9 -17 -21 -28 -18 -16 -40 -20 -143 -22
l-123 -4 -41 -38 c-23 -21 -42 -41 -42 -44 0 -10 299 -5 334 5 81 23 136 97
136 181 l0 46 -186 1 c-103 0 -188 2 -191 4 -2 3 11 15 28 28 30 21 44 23 151
24 l119 1 42 42 42 42 -40 1 c-22 0 -76 1 -120 2 -44 1 -105 -1 -135 -4z"/>
<path d="M4870 520 c-103 -13 -170 -88 -170 -190 l0 -40 185 0 c107 0 185 -4
185 -9 0 -5 -12 -19 -26 -30 -24 -19 -40 -21 -144 -21 -126 0 -125 1 -184 -68
l-20 -23 150 2 c175 1 212 9 261 52 44 39 63 82 63 141 l0 45 -181 0 c-99 -1
-182 1 -185 4 -8 8 37 47 55 48 9 1 64 2 124 3 l107 2 42 42 43 42 -50 1 c-28
0 -86 1 -130 2 -44 1 -100 0 -125 -3z"/>
<path d="M5274 522 c-32 -2 -49 -11 -79 -42 -22 -22 -35 -41 -30 -41 6 -1 46
-2 90 -3 l80 -1 3 -147 3 -147 44 2 45 1 -1 106 c0 58 0 123 0 146 l1 41 53
-2 c49 -1 54 2 90 39 20 22 37 43 37 46 0 5 -265 7 -336 2z"/>
<path d="M6148 522 l-48 -3 0 -188 0 -187 43 1 42 1 2 65 c1 35 2 100 2 145
l1 80 48 0 c26 0 50 -4 53 -9 3 -4 5 -37 4 -72 l-1 -65 43 0 c27 0 43 5 44 13
1 6 1 38 0 70 -1 56 0 57 27 57 18 0 38 -10 53 -26 22 -23 24 -36 29 -142 l5
-117 35 -2 c19 -1 37 3 41 8 9 16 2 231 -9 259 -13 34 -53 75 -90 94 -31 16
-206 26 -324 18z"/>
<path d="M4188 478 c5 -71 11 -87 48 -128 47 -52 86 -63 220 -63 105 0 111 -1
101 -18 -20 -33 -55 -39 -212 -39 l-155 0 0 -45 0 -45 151 0 c173 0 216 9 265
57 48 46 54 68 54 204 l0 119 -45 0 -45 0 0 -73 0 -73 -112 1 c-66 1 -122 7
-135 14 -29 15 -53 61 -53 101 0 29 -2 30 -43 30 l-43 0 4 -42z"/>
<path d="M5715 508 c-120 -42 -160 -211 -72 -307 47 -51 89 -61 260 -61 86 0
157 2 157 5 0 3 -17 23 -37 44 l-38 38 -103 1 c-122 1 -154 7 -177 32 -15 17
-15 18 2 23 10 3 89 5 176 5 86 0 164 1 172 1 11 1 15 12 15 40 0 75 -48 149
-116 177 -39 16 -194 18 -239 2z m192 -77 c16 -1 71 -50 58 -52 -5 -1 -69 -2
-142 -3 -117 -2 -130 0 -123 14 9 17 44 37 74 42 16 2 66 2 133 -1z"/>
<path d="M1290 275 l0 -45 1150 0 1150 0 0 45 0 45 -1150 0 -1150 0 0 -45z"/>
</g>
</svg>
