<svg xmlns="http://www.w3.org/2000/svg" width="662.66" height="437.53" viewBox="0 0 662.66 437.53"><defs><style>.cls-1{fill:#e0e0e0;}.cls-2{fill:#ebebeb;}.cls-3{fill:#f5f5f5;}.cls-4{fill:#e8505b;}.cls-5{opacity:0.3;}.cls-6{fill:#263238;}.cls-7{fill:#fff;}.cls-8{fill:#fafafa;}</style></defs><g id="Background_Complete" data-name="Background Complete"><path class="cls-1" d="M706,242.24s0-.1,0-.28,0-.47,0-.8c0-.72,0-1.73,0-3,0-2.67-.05-6.52-.09-11.38l.16.16-57.55.1.26-.26h0v7.87q0,3.88,0,7.62l-.25-.26,41,.12,12.1.07,3.27,0,.85,0a1.71,1.71,0,0,1,.3,0h-.27l-.82,0-3.21,0-12,.08-41.21.11h-.25v-.25q0-3.74,0-7.62v-7.87h0l.26-.26,57.55.1h.16v.16c0,4.9-.07,8.78-.09,11.47,0,1.29,0,2.3,0,3,0,.32,0,.57,0,.77A1.15,1.15,0,0,1,706,242.24Z" transform="translate(-43.54 -35.17)"/><rect class="cls-2" x="328.53" width="57.55" height="15.5"/><path class="cls-1" d="M453.71,66.57s0-.1,0-.28,0-.46,0-.79c0-.72,0-1.74,0-3,0-2.67-.05-6.52-.09-11.38l.16.16-57.55.1.26-.26h0V59q0,3.88,0,7.62l-.25-.25,41,.11,12.1.07,3.27,0h.85l.3,0a1.15,1.15,0,0,1-.27,0h-.82l-3.21,0-12,.07-41.21.11h-.26V51.08h0l.26-.26,57.55.1h.16v.16c0,4.9-.07,8.78-.09,11.47,0,1.3,0,2.3,0,3,0,.31,0,.57,0,.76A1.15,1.15,0,0,1,453.71,66.57Z" transform="translate(-43.54 -35.17)"/><path class="cls-1" d="M141.09,306.13a1.73,1.73,0,0,1,0-.28c0-.2,0-.46,0-.79,0-.73,0-1.74,0-3.05,0-2.67-.05-6.52-.09-11.38l.16.16-57.55.1.26-.26h0v7.87q0,3.89,0,7.62l-.25-.26,41,.12,12.1.07,3.26,0h.86l.3,0h-.27l-.82,0-3.21,0-12,.08-41.21.11h-.26V290.64h0l.26-.26,57.55.1h.16v.16c0,4.9-.07,8.78-.09,11.47,0,1.3,0,2.3,0,3,0,.32,0,.57,0,.77S141.09,306.13,141.09,306.13Z" transform="translate(-43.54 -35.17)"/><path class="cls-1" d="M147.5,321.63a2,2,0,0,1,0-.3c0-.22,0-.49,0-.82,0-.76,0-1.8-.05-3.11,0-2.72-.06-6.56-.11-11.27l.2.2-28.77.06c-.24.23.31-.32.25-.26h0v8c0,2.59,0,5.1,0,7.49l-.25-.25,20.62.12,6,.07,1.61,0,.57,0a3.2,3.2,0,0,1-.52,0l-1.56,0-5.91.06-20.79.12h-.24v-.24c0-2.39,0-4.9,0-7.49,0-1.3,0-2.62,0-3.95v-4.05h0c0,.05.5-.5.27-.26l28.77.06h.2v.2c0,4.76-.08,8.64-.11,11.39,0,1.29,0,2.32-.05,3.07,0,.31,0,.57,0,.78A1.1,1.1,0,0,1,147.5,321.63Z" transform="translate(-43.54 -35.17)"/><path class="cls-1" d="M684.82,78.68a1.58,1.58,0,0,1,0-.28c0-.2,0-.46,0-.79,0-.72,0-1.74,0-3,0-2.67,0-6.52-.09-11.38l.16.16-57.55.1c.11-.12-.27.26.25-.26h0V78.68l-.26-.25,41,.11,12.09.07,3.27,0h.86l.3,0-.27,0h-.82l-3.22,0-12,.07-41.21.11H627V71.06c0-1.29,0-2.6,0-3.91v-4h0c.52-.52.15-.14.27-.26l57.55.1H685v.16c0,4.9-.07,8.78-.09,11.47,0,1.3,0,2.3,0,3,0,.31,0,.57,0,.76A2.06,2.06,0,0,1,684.82,78.68Z" transform="translate(-43.54 -35.17)"/><path class="cls-1" d="M691.23,94.18a1.06,1.06,0,0,1,0-.29c0-.22,0-.5,0-.83,0-.76,0-1.8-.05-3.11,0-2.72-.07-6.56-.11-11.27l.2.2-28.78.06.26-.26h0v8c0,2.59,0,5.1,0,7.49l-.24-.24,20.62.11,6,.07,1.6,0,.58,0a3.2,3.2,0,0,1-.52,0l-1.56,0-5.92.07-20.78.11h-.24v-.25c0-2.39,0-4.9,0-7.49v-8h0l.26-.26,28.78.06h.2v.2c0,4.76-.07,8.64-.1,11.39,0,1.29,0,2.32-.05,3.07,0,.32,0,.58,0,.79S691.23,94.19,691.23,94.18Z" transform="translate(-43.54 -35.17)"/><rect class="cls-2" y="115.15" width="57.55" height="15.5"/><path class="cls-1" d="M125.18,181.72a1.73,1.73,0,0,1,0-.28c0-.21,0-.47,0-.8,0-.72,0-1.74,0-3,0-2.67-.06-6.52-.09-11.37l.16.15-57.55.11c.11-.12-.27.26.25-.26h0v15.48l-.26-.26,41,.12,12.09.07,3.27,0,.86,0a1.11,1.11,0,0,1,.3,0h-.27l-.82,0-3.22,0-12,.07L67.62,182h-.25v-.25c0-2.49,0-5,0-7.62v-7.86h0l.27-.27,57.55.11h.16v.16c0,4.89-.07,8.78-.09,11.47,0,1.29,0,2.3,0,3,0,.32,0,.57,0,.77A2.28,2.28,0,0,1,125.18,181.72Z" transform="translate(-43.54 -35.17)"/><rect class="cls-2" x="440.46" y="237.27" width="57.55" height="15.5"/><path class="cls-1" d="M565.64,303.84s0-.1,0-.28,0-.47,0-.8c0-.72,0-1.74,0-3,0-2.67-.05-6.53-.09-11.38l.16.16-57.55.1.26-.26h0v7.86c0,2.59,0,5.13,0,7.62l-.25-.26,41,.12,12.1.07,3.27,0,.85,0,.3,0h-.27l-.82,0-3.21,0-12,.08-41.21.11h-.26V288.36h0l.26-.26,57.55.1h.16v.16c0,4.9-.07,8.78-.09,11.47,0,1.29,0,2.3,0,3,0,.32,0,.57,0,.77A1.15,1.15,0,0,1,565.64,303.84Z" transform="translate(-43.54 -35.17)"/><path class="cls-1" d="M281.11,362.47s0-.1,0-.28,0-.47,0-.8c0-.72,0-1.74,0-3.05,0-2.66-.05-6.52-.09-11.37l.16.15-57.55.11.26-.26h0v7.86c0,2.58,0,5.13,0,7.62l-.25-.26,41,.12,12.1.07,3.27,0,.85,0a1,1,0,0,1,.3,0h-.27l-.82,0-3.21,0-12,.07-41.21.12h-.26V347h0l.26-.26,57.55.1h.16V347c0,4.89-.07,8.78-.09,11.47,0,1.29,0,2.3,0,3,0,.32,0,.57,0,.77A1.15,1.15,0,0,1,281.11,362.47Z" transform="translate(-43.54 -35.17)"/><path class="cls-1" d="M234.57,89s0-.1,0-.28,0-.46,0-.79c0-.72,0-1.74,0-3,0-2.67-.05-6.52-.09-11.38l.16.16L177,73.8l.26-.26h0v7.87q0,3.89,0,7.62l-.25-.25,41,.11,12.1.08,3.27,0,.85,0h.3a1.15,1.15,0,0,1-.27,0l-.82,0-3.21,0-12,.07L177,89.3h-.26V73.55h0l.26-.26,57.55.1h.16v.16c0,4.9-.07,8.78-.09,11.48,0,1.29,0,2.3,0,3,0,.32,0,.57,0,.76A1,1,0,0,1,234.57,89Z" transform="translate(-43.54 -35.17)"/><path class="cls-3" d="M611.1,464.82c-16-12.61-18.51-34.44-16.73-53.83.3-3.23.14-6.67,1.85-9.43s5.42-4.49,8.24-2.95c2.35,1.27,3.23,4.13,4.45,6.53a19,19,0,0,0,7.18,7.7c2,1.19,4.52,2,6.62,1,2.89-1.38,3.44-5.23,3.61-8.45l.93-18c.17-3.23.35-6.52,1.53-9.52s3.56-5.72,6.68-6.4,6.81,1.31,7.27,4.5a28.49,28.49,0,0,1-.14,4c0,1.35.55,2.86,1.8,3.31S647,382.86,648,382c3.52-3.06,6-7.12,8.37-11.17s4.65-8.2,7.88-11.58,7.56-6,12.2-5.94,9.39,3.14,10.29,7.74-2,9.08-5.11,12.59A72.25,72.25,0,0,1,665.83,387a5.92,5.92,0,0,0-2.66,2.55c-.83,2.11,1.09,4.36,3.17,5.19,2.36.94,5,.84,7.48,1.28s5.15,1.71,6,4.14c1.13,3.38-1.83,6.67-4.68,8.78a61.82,61.82,0,0,1-18.86,9.47c-2.42.73-5,1.35-7,2.91s-3.33,4.38-2.31,6.72,3.95,3.24,6.46,2.93,4.82-1.54,7.24-2.3c4.53-1.41,10.23-.78,12.85,3.22,1.72,2.63,1.68,6.14.56,9.09a23.59,23.59,0,0,1-5.35,7.68,62.09,62.09,0,0,1-27.56,17.08c-10.48,3-20.07,3.38-30.07-.95" transform="translate(-43.54 -35.17)"/><path class="cls-1" d="M616.82,452.93a288.85,288.85,0,0,1,13.28-30.45l3.89-7.8c1.28-2.55,2.55-5.09,4-7.5a144.29,144.29,0,0,1,8.82-13.35c3-4.11,6-7.9,8.86-11.43s5.56-6.75,8.16-9.59A114.91,114.91,0,0,1,677,360.33c1.67-1.34,3-2.34,3.92-3l1-.75a1.9,1.9,0,0,1,.37-.24,2,2,0,0,1-.33.29l-1,.8c-.89.69-2.2,1.72-3.85,3.09a120.92,120.92,0,0,0-13.08,12.59c-2.58,2.85-5.27,6.08-8.09,9.61s-5.81,7.34-8.8,11.45a146.2,146.2,0,0,0-8.76,13.32c-1.38,2.39-2.64,4.91-3.93,7.47s-2.57,5.17-3.88,7.8a295.11,295.11,0,0,0-13.29,30.37" transform="translate(-43.54 -35.17)"/><path class="cls-1" d="M638.11,407.17a6.4,6.4,0,0,1-.23-1.39c-.12-.9-.25-2.21-.38-3.83-.27-3.24-.49-7.72-.72-12.67s-.5-9.41-.82-12.63c-.16-1.62-.29-2.92-.4-3.82a6.74,6.74,0,0,1-.1-1.41,6.82,6.82,0,0,1,.33,1.37c.17.89.38,2.19.58,3.81.43,3.22.78,7.7,1,12.65s.39,9.3.54,12.67c.07,1.52.13,2.81.19,3.84A6.41,6.41,0,0,1,638.11,407.17Z" transform="translate(-43.54 -35.17)"/><path class="cls-1" d="M680,401.83a9.55,9.55,0,0,1-1.66.1c-1.07,0-2.62.07-4.53.18-3.82.19-9.09.64-14.88,1.39s-11,1.66-14.76,2.43c-1.88.37-3.39.71-4.44.94a8.94,8.94,0,0,1-1.64.3,8.81,8.81,0,0,1,1.59-.53c1-.3,2.53-.7,4.4-1.13,3.74-.87,9-1.85,14.77-2.61a146,146,0,0,1,14.94-1.21c1.92-.06,3.48,0,4.55,0A8.53,8.53,0,0,1,680,401.83Z" transform="translate(-43.54 -35.17)"/><path class="cls-1" d="M617.38,452.2a2.17,2.17,0,0,1-.26-.52l-.62-1.55c-.53-1.34-1.26-3.3-2.12-5.73-1.72-4.87-3.89-11.66-6.19-19.19s-4.4-14.35-6-19.24c-.79-2.38-1.45-4.34-1.94-5.79-.2-.63-.37-1.15-.51-1.58a2,2,0,0,1-.15-.57,2.42,2.42,0,0,1,.26.53c.17.41.37.92.62,1.54.54,1.34,1.26,3.3,2.12,5.73,1.72,4.87,3.89,11.66,6.19,19.2s4.4,14.34,6,19.23c.8,2.38,1.45,4.34,1.94,5.79.2.63.38,1.16.52,1.58A2.18,2.18,0,0,1,617.38,452.2Z" transform="translate(-43.54 -35.17)"/><path class="cls-1" d="M673.5,437.64a2.18,2.18,0,0,1-.56.19l-1.63.44-6,1.57c-5.07,1.33-12.06,3.24-19.78,5.37s-14.74,4-19.84,5.19c-2.55.62-4.62,1.09-6.06,1.39l-1.66.33a2.32,2.32,0,0,1-.58.08,2.09,2.09,0,0,1,.56-.2l1.63-.44,6-1.57c5.07-1.33,12.06-3.24,19.79-5.36s14.73-4,19.83-5.2c2.55-.61,4.62-1.09,6.06-1.38l1.66-.34A2,2,0,0,1,673.5,437.64Z" transform="translate(-43.54 -35.17)"/><path class="cls-2" d="M119.92,333.17s-8.06,2.78.15,20,14,25.8,14,25.8,1.44,4-1.9,4.51-10.62-.84-12.21,3.19,1.31,8.23,7.42,11.88,19.21,12.16,20.4,12.93,2.29,2.63.07,3.35-18.71,2-17.64,9.78S150,439.8,152,440.65s2.5,1.72,2.3,2.85-5.78,1-10.46,1.58-10,2-9,6.46,11.94,14,39,17.41l12.66.75,7.18-10.52c14-23.45,13.19-38,10.3-41.48s-7.32-.22-10.64,3.12-6.67,7.81-7.68,7.27-1.41-1.44-.83-3.56,6.27-21.41.79-27-16.63,6.58-18.57,7.88-2.7-.74-2.59-2.12,1.48-17,2.37-24-.5-11.9-4.81-13.17c-4.15-1.22-7.55,5.36-10,7.67s-4.73-1.28-4.73-1.28-3.2-9.83-11.72-26.91-15.83-12.28-15.83-12.28" transform="translate(-43.54 -35.17)"/><path class="cls-1" d="M187.11,472.7c-6.21-12.57-16.87-35.09-26.13-54.37S143.33,381.6,137.19,369l-7.3-14.9-2-4.06c-.22-.45-.38-.81-.51-1.06s-.16-.37-.16-.37.08.12.2.35l.54,1c.48.94,1.17,2.29,2,4,1.77,3.49,4.3,8.57,7.41,14.85,6.21,12.57,14.64,30,23.9,49.28s19.88,41.82,26,54.41" transform="translate(-43.54 -35.17)"/><path class="cls-1" d="M130.06,389a5.53,5.53,0,0,1,.88.27c.55.2,1.35.51,2.33.89,2,.78,4.63,1.93,7.57,3.24l7.49,3.4,2.27,1a3.73,3.73,0,0,1,.82.41,3.79,3.79,0,0,1-.87-.26c-.56-.2-1.36-.51-2.33-.9-1.95-.8-4.62-2-7.55-3.3l-7.51-3.34-2.28-1A4,4,0,0,1,130.06,389Z" transform="translate(-43.54 -35.17)"/><path class="cls-1" d="M152.31,397.42c-.1,0,2-5.66,4.73-12.55s5-12.46,5.09-12.42-2,5.66-4.72,12.56S152.41,397.46,152.31,397.42Z" transform="translate(-43.54 -35.17)"/><path class="cls-1" d="M165.19,427.68a4.33,4.33,0,0,1,.53-.77l1.56-2c1.31-1.7,3.11-4.06,5-6.73s3.53-5.15,4.7-7l1.38-2.13a4.21,4.21,0,0,1,.55-.76,4.2,4.2,0,0,1-.42.84c-.29.52-.72,1.28-1.28,2.2-1.11,1.84-2.71,4.35-4.61,7s-3.74,5-5.11,6.68c-.69.82-1.25,1.49-1.66,1.93A5.31,5.31,0,0,1,165.19,427.68Z" transform="translate(-43.54 -35.17)"/><path class="cls-1" d="M143.38,424.48a3.6,3.6,0,0,1,.87,0l2.34.25c2,.23,4.69.57,7.7,1s5.72.78,7.69,1.08l2.32.37a3.09,3.09,0,0,1,.84.2,4.29,4.29,0,0,1-.86,0l-2.34-.25c-2-.23-4.7-.57-7.7-1s-5.72-.79-7.69-1.09l-2.32-.37A3.8,3.8,0,0,1,143.38,424.48Z" transform="translate(-43.54 -35.17)"/><path class="cls-1" d="M151.36,452.63a7.63,7.63,0,0,1,1.11.06l3,.31c2.53.28,6,.69,9.87,1.16s7.35.94,9.87,1.28l3,.44a5.45,5.45,0,0,1,1.09.21,6,6,0,0,1-1.1-.06l-3-.31c-2.54-.28-6-.69-9.88-1.16s-7.35-.94-9.87-1.28l-3-.44A5.68,5.68,0,0,1,151.36,452.63Z" transform="translate(-43.54 -35.17)"/><path class="cls-1" d="M178.64,455.82a6.55,6.55,0,0,1,.65-1l1.88-2.63c1.59-2.21,3.77-5.28,6.08-8.74s4.32-6.64,5.77-8.95l1.7-2.74a6.38,6.38,0,0,1,.67-1,8.06,8.06,0,0,1-.53,1.06c-.37.67-.91,1.63-1.61,2.8-1.38,2.35-3.36,5.57-5.68,9s-4.53,6.51-6.17,8.69c-.83,1.08-1.51,2-2,2.55A8.91,8.91,0,0,1,178.64,455.82Z" transform="translate(-43.54 -35.17)"/></g><g id="Background_Simple" data-name="Background Simple"><path class="cls-2" d="M566.76,126l-2.57-4.18c-21.67-35.26-60.84-56.51-102.13-53.93A109.42,109.42,0,0,0,446.25,70c-37.55,7.94-70.22,36-83.76,71.89-8,21.12-10.19,45.43-25.31,62.19-19.67,21.82-53.06,22.51-82.42,21.6s-62.78-.13-82.35,21.77c-12.26,13.72-16.16,33.22-15.17,51.59,2.62,48.64,36.94,92.13,80.58,113.74s95,23.55,142.8,14c66.92-13.32,130.56-49.9,168.81-106.4S597.36,186.93,566.76,126Z" transform="translate(-43.54 -35.17)"/></g><g id="Plant"><path class="cls-4" d="M116.75,425.36c-4.72-5.57-5.34-14.51-4.65-21.77s2.38-14.58,1.23-21.78c-.68-4.27-2.33-8.35-2.89-12.64s.23-9.13,3.55-11.9c3.82-3.18,9.83-2.43,13.8.56s6.28,7.68,8,12.35c3.69,10.27,5.05,21.66,2,32.15s-10.15,19.86-20.6,23" transform="translate(-43.54 -35.17)"/><path class="cls-4" d="M141.81,438c.77-2.69,2.43-5.29,5-6.39s5.77-.5,8.5.49,5.42,2.33,8.32,2.51,6.19-1.2,7.06-4c.81-2.61-.76-5.39-2.73-7.29a17.21,17.21,0,0,0-28.19,6.77" transform="translate(-43.54 -35.17)"/><g class="cls-5"><path d="M141.81,438c.77-2.69,2.43-5.29,5-6.39s5.77-.5,8.5.49,5.42,2.33,8.32,2.51,6.19-1.2,7.06-4c.81-2.61-.76-5.39-2.73-7.29a17.21,17.21,0,0,0-28.19,6.77" transform="translate(-43.54 -35.17)"/></g><path class="cls-4" d="M118.8,449.67c-4.26-4-4-11.09-1.92-16.57s6.76-9.68,11.94-12.46a37.82,37.82,0,0,1,33-1.06A15.63,15.63,0,0,0,149.14,427c-2.34,3.88-2.86,8.59-4.79,12.68a19.93,19.93,0,0,1-25.55,10" transform="translate(-43.54 -35.17)"/><path class="cls-6" d="M114.49,471a2.63,2.63,0,0,1,0-.64c0-.42,0-1,0-1.84,0-1.6.2-3.91.55-6.75a88,88,0,0,1,1.8-9.88,45.41,45.41,0,0,1,4.51-11.45,47.69,47.69,0,0,1,15.11-16.28c1.18-.81,2.33-1.42,3.31-2s1.89-1,2.61-1.3l1.7-.71a2.89,2.89,0,0,1,.61-.21,2.89,2.89,0,0,1-.57.31l-1.65.79c-.71.37-1.57.82-2.56,1.37s-2.08,1.22-3.24,2.05a48.88,48.88,0,0,0-14.87,16.22c-4.33,7.57-5.52,15.54-6.39,21.13-.4,2.82-.6,5.12-.72,6.71q-.08,1.13-.12,1.83A3,3,0,0,1,114.49,471Z" transform="translate(-43.54 -35.17)"/><path class="cls-4" d="M73.49,409.93c-8.72,5.27-8.7,10.06-7.24,14.59s6.81,7.66,11.26,6c2.51-1,4.32-3.14,5.88-5.33s3-4.54,5.19-6.12,5.33-2.17,7.51-.61" transform="translate(-43.54 -35.17)"/><g class="cls-5"><path d="M73.49,409.93c-8.72,5.27-8.7,10.06-7.24,14.59s6.81,7.66,11.26,6c2.51-1,4.32-3.14,5.88-5.33s3-4.54,5.19-6.12,5.33-2.17,7.51-.61" transform="translate(-43.54 -35.17)"/></g><path class="cls-4" d="M67,415.71c2.28-3.16,7.92-4.07,11.48-2.5s6.17,4.7,8.5,7.81,4.61,6.41,7.84,8.57,7.75,3,11,.77a9.42,9.42,0,0,0,3.73-6.45,21.48,21.48,0,0,0-.52-7.61c-.77-3.66-2-7.48-4.95-9.81-3.27-2.59-7.8-2.71-12-2.58-4.78.16-9.63.52-14.12,2.18s-9.07,5.23-11,9.62" transform="translate(-43.54 -35.17)"/><path class="cls-6" d="M106.92,470.59a5,5,0,0,1-.06-.75c0-.55,0-1.27-.09-2.17-.06-1.94-.14-4.64-.25-8s-.25-7.37-.5-11.81-.58-9.31-1.25-14.39a47.16,47.16,0,0,0-1.45-7.3,37.21,37.21,0,0,0-2.66-6.39,34.62,34.62,0,0,0-7-9.34A27.29,27.29,0,0,0,87.11,406a20,20,0,0,0-2-.87,3.12,3.12,0,0,1-.69-.31,6.86,6.86,0,0,1,.73.21,18.3,18.3,0,0,1,2,.78,26.14,26.14,0,0,1,6.67,4.38,34.33,34.33,0,0,1,7.21,9.38,37.31,37.31,0,0,1,2.73,6.46,46,46,0,0,1,1.47,7.39c.68,5.1,1,10,1.22,14.44s.33,8.45.39,11.82.08,6.09.08,8c0,.9,0,1.62,0,2.17A3.13,3.13,0,0,1,106.92,470.59Z" transform="translate(-43.54 -35.17)"/><path class="cls-6" d="M110.81,470.59s0-.08-.09-.24l-.23-.73c-.2-.65-.43-1.61-.68-2.87a49.29,49.29,0,0,1-.68-10.8,65.26,65.26,0,0,1,2.62-15.84c1.75-5.79,4.24-12,6.44-18.55a81.29,81.29,0,0,0,4.07-19.11,129.44,129.44,0,0,0,.37-16c-.14-4.56-.37-8.25-.52-10.8-.07-1.24-.12-2.22-.16-2.93,0-.31,0-.57,0-.77a1,1,0,0,1,0-.26,1.11,1.11,0,0,1,0,.26c0,.2,0,.45.09.76.06.71.15,1.69.25,2.93.21,2.54.5,6.23.69,10.79a126.54,126.54,0,0,1-.26,16.05,80.56,80.56,0,0,1-4.06,19.23c-2.2,6.62-4.7,12.78-6.47,18.54A66.51,66.51,0,0,0,109.5,456a51.66,51.66,0,0,0,.51,10.75c.22,1.25.41,2.22.58,2.87.07.3.13.55.18.74A1.27,1.27,0,0,1,110.81,470.59Z" transform="translate(-43.54 -35.17)"/></g><g id="Fence"><rect class="cls-1" x="396.27" y="276.16" width="8.67" height="159.37"/><path class="cls-4" d="M452.91,305.88a8.74,8.74,0,1,1-8.74-8.74A8.73,8.73,0,0,1,452.91,305.88Z" transform="translate(-43.54 -35.17)"/><rect class="cls-1" x="568.55" y="276.16" width="8.67" height="159.37"/><path class="cls-4" d="M625.18,305.88a8.74,8.74,0,1,1-8.73-8.74A8.73,8.73,0,0,1,625.18,305.88Z" transform="translate(-43.54 -35.17)"/><rect class="cls-4" x="371.52" y="291.54" width="222.11" height="39.74"/><polygon class="cls-3" points="396.66 291.54 396.27 292.19 373.45 331.28 371.52 331.28 371.52 291.54 396.66 291.54"/><polygon class="cls-3" points="452.8 291.54 429.57 331.28 399.22 331.28 408.45 315.49 422.45 291.54 452.8 291.54"/><polygon class="cls-3" points="508.91 291.54 485.68 331.28 455.33 331.28 478.56 291.54 508.91 291.54"/><polygon class="cls-3" points="565.02 291.55 541.79 331.28 511.45 331.28 534.68 291.55 565.02 291.55"/><polygon class="cls-3" points="593.63 291.55 593.63 331.28 567.56 331.28 590.8 291.55 593.63 291.55"/><rect class="cls-4" x="371.52" y="352.93" width="222.11" height="39.74"/><polygon class="cls-3" points="396.66 352.93 396.27 353.59 373.45 392.67 371.52 392.67 371.52 352.93 396.66 352.93"/><polygon class="cls-3" points="452.8 352.93 429.57 392.67 399.22 392.67 408.45 376.88 422.45 352.93 452.8 352.93"/><polygon class="cls-3" points="508.91 352.93 485.68 392.67 455.33 392.67 478.56 352.93 508.91 352.93"/><polygon class="cls-3" points="565.02 352.94 541.79 392.67 511.45 392.67 534.68 352.94 565.02 352.94"/><polygon class="cls-3" points="593.63 352.94 593.63 392.67 567.56 392.67 590.8 352.94 593.63 352.94"/><path class="cls-6" d="M637.17,366.45s0-.24,0-.69,0-1.12,0-2c0-1.77,0-4.36-.06-7.73,0-6.76-.07-16.67-.13-29.34l.23.23-222.09.21h0l.43-.44v39.74l-.43-.44,158.12.2,46.88.12,12.67.06,3.29,0,1.14,0s-.35,0-1.08,0l-3.24,0-12.57.05-46.79.13-158.42.19h-.44V326.27h.45l222.09.21h.23v.23c0,12.73-.1,22.68-.13,29.48q0,5,0,7.67c0,.84,0,1.49,0,1.95S637.17,366.45,637.17,366.45Z" transform="translate(-43.54 -35.17)"/><path class="cls-6" d="M637.17,427.84s0-.24,0-.68,0-1.13,0-2c0-1.77,0-4.35-.06-7.73,0-6.76-.07-16.66-.13-29.34l.23.23-222.09.21h0l.43-.44v39.74l-.43-.43,158.12.19,46.88.13,12.67,0,3.29,0,1.14,0s-.35,0-1.08,0l-3.24,0-12.57.06-46.79.12-158.42.2h-.44V387.66h.45l222.09.21h.23v.23c0,12.74-.1,22.68-.13,29.48q0,5,0,7.67c0,.84,0,1.49,0,1.95S637.17,427.84,637.17,427.84Z" transform="translate(-43.54 -35.17)"/></g><g id="Floor"><path class="cls-6" d="M687.78,470.7c0,.14-140.5.26-313.76.26s-313.8-.12-313.8-.26,140.47-.26,313.8-.26S687.78,470.55,687.78,470.7Z" transform="translate(-43.54 -35.17)"/></g><g id="Sign"><rect class="cls-1" x="105.71" y="192.73" width="9.1" height="242.79"/><path class="cls-6" d="M158.36,470.7s0-.44,0-1.26,0-2.07,0-3.67c0-3.23,0-8,0-14.09,0-12.23,0-29.93-.08-51.85,0-43.81-.07-104.47-.11-171.92l.26.26h-9.1l.26-.26c-.1,117-.18,215.29-.2,242.79l-.06-.07,6.87,0c1.5,0,2.23,0,2.23,0l-2.19,0-6.91,0h-.07v-.06c0-27.5-.1-125.8-.19-242.79v-.26h9.62v.26c0,67.53-.08,128.26-.11,172.11,0,21.9-.06,39.57-.08,51.79,0,6.09,0,10.81,0,14,0,1.59,0,2.8,0,3.63S158.36,470.7,158.36,470.7Z" transform="translate(-43.54 -35.17)"/><circle class="cls-4" cx="153.81" cy="185.08" r="52.94" transform="translate(-105.54 43.42) rotate(-24.01)"/><path class="cls-7" d="M201.46,183.09a3.87,3.87,0,0,1-.09-.77c0-.55-.09-1.3-.16-2.26,0-.5-.07-1.06-.1-1.67s-.2-1.27-.31-2a33.59,33.59,0,0,0-1-4.91,45,45,0,0,0-5.29-12.61,47.38,47.38,0,0,0-12.06-13.42,46.84,46.84,0,0,0-19.91-8.81,47.48,47.48,0,0,0-24.81,2.07,49.91,49.91,0,0,0-6.16,2.71c-1,.54-1.95,1.17-2.94,1.76a24.73,24.73,0,0,0-2.84,2,53.42,53.42,0,0,0-5.36,4.56,51.94,51.94,0,0,0-4.62,5.47,45.78,45.78,0,0,0-6.75,13,46.87,46.87,0,0,0,0,29.79,45.88,45.88,0,0,0,6.74,13,53.18,53.18,0,0,0,4.63,5.48,54.55,54.55,0,0,0,5.35,4.55,24.55,24.55,0,0,0,2.85,2c1,.58,1.95,1.21,2.94,1.75a47.44,47.44,0,0,0,62.94-17.44,45.29,45.29,0,0,0,5.29-12.61,33.86,33.86,0,0,0,1-4.91c.11-.72.24-1.38.31-2s.07-1.16.1-1.66c.07-1,.12-1.71.16-2.26a3.87,3.87,0,0,1,.09-.77,5,5,0,0,1,0,.77c0,.55,0,1.31-.06,2.27,0,.5,0,1.06-.07,1.67s-.17,1.28-.26,2a34.77,34.77,0,0,1-.93,4.95,44.94,44.94,0,0,1-5.2,12.79,47.86,47.86,0,0,1-32.27,22.71,48.14,48.14,0,0,1-25.24-2,49.5,49.5,0,0,1-6.27-2.75c-1-.55-2-1.19-3-1.78a23.84,23.84,0,0,1-2.91-2,44,44,0,0,1-10.18-10.2,46.52,46.52,0,0,1-6.89-13.25,47.61,47.61,0,0,1,0-30.36,46.83,46.83,0,0,1,6.88-13.24,55.07,55.07,0,0,1,4.72-5.57,54,54,0,0,1,5.47-4.63,24.44,24.44,0,0,1,2.9-2c1-.6,2-1.24,3-1.79a51.57,51.57,0,0,1,6.27-2.74,48,48,0,0,1,25.24-2,48,48,0,0,1,32.27,22.71,45.17,45.17,0,0,1,5.2,12.79,34.62,34.62,0,0,1,.93,5c.09.72.21,1.39.26,2s0,1.17.07,1.67c0,1,0,1.72.06,2.28A5,5,0,0,1,201.46,183.09Z" transform="translate(-43.54 -35.17)"/><rect class="cls-8" x="82.7" y="141.95" width="55.13" height="11.5"/></g><g id="_403_Error" data-name="403 Error"><rect class="cls-7" x="420.83" y="58.62" width="207.59" height="207.59" transform="translate(-56.34 14.15) rotate(-5.32)"/><path class="cls-6" d="M637.6,256.15s0-.33-.11-1-.16-1.6-.28-2.86c-.24-2.52-.6-6.24-1.07-11.09-.92-9.7-2.27-23.92-4-42-3.4-36.16-8.26-87.79-14.09-149.73l.32.26L411.71,69h0l.3-.36,19.2,206.7-.32-.26,149.77-13.79,42-3.84,11.1-1,2.85-.25,1-.07-.94.1-2.82.28-11,1.06-42,4L430.93,275.68l-.29,0,0-.29c-5.6-60.08-12.22-131-19.28-206.7l0-.33.33,0h0l206.68-19.2.29,0,0,.29c5.71,62,10.47,113.74,13.81,150,1.65,18.07,2.94,32.27,3.83,42,.43,4.83.77,8.53,1,11,.11,1.24.19,2.18.25,2.82S637.6,256.15,637.6,256.15Z" transform="translate(-43.54 -35.17)"/><rect class="cls-1" x="421.71" y="54.97" width="9.11" height="22.12" transform="translate(-47.83 4.62) rotate(-5.32)"/><rect class="cls-1" x="440.97" y="261.82" width="9.11" height="22.12" transform="translate(-66.91 7.29) rotate(-5.32)"/><rect class="cls-1" x="602.74" y="38.12" width="9.11" height="22.12" transform="translate(-45.49 21.32) rotate(-5.32)"/><rect class="cls-1" x="622.12" y="246.37" width="9.11" height="22.12" transform="translate(-64.7 24.02) rotate(-5.32)"/><circle class="cls-7" cx="520.83" cy="121.58" r="45.4" transform="translate(56.2 416.15) rotate(-51.2)"/><path class="cls-4" d="M520.79,167.63a46,46,0,1,1,45.89-50.32h0a46.11,46.11,0,0,1-41.58,50.12C523.65,167.56,522.22,167.63,520.79,167.63Zm.07-90.82c-1.38,0-2.78.07-4.18.2a44.68,44.68,0,1,0,4.18-.2Z" transform="translate(-43.54 -35.17)"/><path class="cls-4" d="M541.93,116.35a3.19,3.19,0,0,0-5.13-.26,11.06,11.06,0,0,0-1.4,3.13c-.89,2.75-1.67,5.53-2.54,8.29-.09.29-.44.51-.67.76-.19-.28-.5-.55-.54-.86-.22-1.57-.4-3.15-.54-4.73-.29-3.11-.54-6.22-.82-9.32-.48-5.22-1-10.45-1.49-15.66a3.22,3.22,0,0,0-.69-1.62,3.06,3.06,0,0,0-3.53-.63,2.89,2.89,0,0,0-1.56,3q.76,8.31,1.54,16.61a2.32,2.32,0,0,1,0,.78c-.07.21-.31.48-.5.5a.81.81,0,0,1-.57-.4,2.09,2.09,0,0,1-.12-.76l-1.8-19.3a10,10,0,0,0-.14-1.21,2.25,2.25,0,0,0-2-1.94,3,3,0,0,0-3.73,3.46q.87,9.51,1.77,19a5.31,5.31,0,0,1,0,1.12.71.71,0,0,1-.45.5.74.74,0,0,1-.58-.36,3.45,3.45,0,0,1-.16-1c-.48-5.08-.93-10.15-1.43-15.23a2.92,2.92,0,0,0-5.81.56q.74,8.1,1.5,16.18a3.45,3.45,0,0,1,.06,1,3.34,3.34,0,0,1-.47.81c-.23-.24-.64-.46-.67-.72-.22-1.95-.36-3.92-.54-5.88s-.36-4.16-.59-6.23a2.74,2.74,0,0,0-3.25-2.39,2.53,2.53,0,0,0-2.34,2.88q.4,6.1.79,12.22h0c.23,2.48.43,5,.55,7.45a37.64,37.64,0,0,0,3.28,14.37,13.36,13.36,0,0,0,10,7.89,19.33,19.33,0,0,0,14.12-2.84,13,13,0,0,0,6-7.73c1.65-6.29,3.17-12.61,4.67-18.93A3.65,3.65,0,0,0,541.93,116.35Z" transform="translate(-43.54 -35.17)"/><path class="cls-6" d="M477,235.61l.13,1.47-8.61.8L467.45,226l8.38-.78.14,1.47-6.68.63.33,3.64,6-.55.13,1.44-5.95.56.36,3.83Z" transform="translate(-43.54 -35.17)"/><path class="cls-6" d="M483.67,227.32l.15,1.58-.38,0c-1.74.16-2.73,1.33-2.55,3.3l.42,4.48-1.63.15-.84-9,1.57-.15.14,1.51A3.44,3.44,0,0,1,483.67,227.32Z" transform="translate(-43.54 -35.17)"/><path class="cls-6" d="M490.5,226.69l.15,1.57-.37,0c-1.75.17-2.74,1.34-2.55,3.3l.41,4.48-1.63.15-.83-9,1.56-.14.14,1.51A3.43,3.43,0,0,1,490.5,226.69Z" transform="translate(-43.54 -35.17)"/><path class="cls-6" d="M492,231.17a4.7,4.7,0,1,1,5.11,4.16A4.5,4.5,0,0,1,492,231.17Zm7.71-.72A3,3,0,1,0,497,233.9,3,3,0,0,0,499.72,230.45Z" transform="translate(-43.54 -35.17)"/><path class="cls-6" d="M508,225.06l.15,1.57-.38,0c-1.74.16-2.73,1.33-2.55,3.3l.42,4.48-1.63.15-.83-9,1.56-.14.14,1.51A3.41,3.41,0,0,1,508,225.06Z" transform="translate(-43.54 -35.17)"/><path class="cls-6" d="M516.51,222.93l.39,4.14,6-.55L523,228l-6,.56.45,4.8-1.7.16-1.1-11.88,8.38-.78.14,1.48Z" transform="translate(-43.54 -35.17)"/><path class="cls-6" d="M524.78,228.12a4.69,4.69,0,1,1,5.11,4.16A4.49,4.49,0,0,1,524.78,228.12Zm7.7-.72a3,3,0,1,0-2.73,3.45A3,3,0,0,0,532.48,227.4Z" transform="translate(-43.54 -35.17)"/><path class="cls-6" d="M540.78,222l.15,1.57-.38,0c-1.74.16-2.73,1.33-2.55,3.3l.42,4.48-1.63.15-.83-9,1.56-.14.14,1.51A3.43,3.43,0,0,1,540.78,222Z" transform="translate(-43.54 -35.17)"/><path class="cls-6" d="M552.52,225.53a4.39,4.39,0,0,1-4.12,5,3.8,3.8,0,0,1-3.35-1.22l.14,1.42-1.57.15-1.17-12.59,1.63-.15.46,5a3.85,3.85,0,0,1,3-1.73A4.38,4.38,0,0,1,552.52,225.53Zm-1.65.16a3,3,0,1,0-2.74,3.45A3,3,0,0,0,550.87,225.69Z" transform="translate(-43.54 -35.17)"/><path class="cls-6" d="M553.81,218.07a1.07,1.07,0,0,1,1-1.17,1.06,1.06,0,0,1,1.2.93,1.07,1.07,0,0,1-1,1.19A1.05,1.05,0,0,1,553.81,218.07Zm.54,2.76,1.63-.15.84,9-1.63.15Z" transform="translate(-43.54 -35.17)"/><path class="cls-6" d="M567.23,216l1.17,12.59-1.56.14-.13-1.42a3.82,3.82,0,0,1-3.06,1.83,4.61,4.61,0,0,1-.86-9.18,3.82,3.82,0,0,1,3.27,1.15l-.46-5Zm-.86,8.24a3,3,0,1,0-2.72,3.46A3,3,0,0,0,566.37,224.24Z" transform="translate(-43.54 -35.17)"/><path class="cls-6" d="M578.79,214.93,580,227.51l-1.56.15-.13-1.43a3.82,3.82,0,0,1-3.07,1.83,4.61,4.61,0,0,1-.85-9.18,3.83,3.83,0,0,1,3.27,1.15l-.46-4.95Zm-.85,8.24a3,3,0,1,0-2.73,3.45A3,3,0,0,0,577.94,223.17Z" transform="translate(-43.54 -35.17)"/><path class="cls-6" d="M590.77,222.52l-7.29.68a3,3,0,0,0,3.5,2.32,3.37,3.37,0,0,0,2.5-1.32l1,1a4.92,4.92,0,0,1-8.67-2.36,4.42,4.42,0,0,1,4.09-5,4.35,4.35,0,0,1,4.87,4.21A2.77,2.77,0,0,1,590.77,222.52Zm-7.4-.49,5.77-.54a2.92,2.92,0,0,0-5.77.54Z" transform="translate(-43.54 -35.17)"/><path class="cls-6" d="M601.48,220.29l.48,5.17-1.63.16-.46-5c-.17-1.76-1.13-2.55-2.67-2.4a2.68,2.68,0,0,0-2.57,3.25l.43,4.63-1.63.15-.84-9,1.56-.15.13,1.36a3.86,3.86,0,0,1,3.11-1.74C599.57,216.53,601.23,217.65,601.48,220.29Z" transform="translate(-43.54 -35.17)"/><path class="cls-6" d="M508.2,206.21l-6.69.62.8,8.59-6.81.64-.8-8.59L474,209.4l-.46-4.87,16.37-26.09,7.51-.7L482,202.66l12.37-1.16-.71-7.61,6.59-.62.71,7.62,6.7-.62Z" transform="translate(-43.54 -35.17)"/><path class="cls-6" d="M510.21,195.61c-1.15-12.42,5-20.08,14-20.91s16.48,5.55,17.64,18-5,20.08-14,20.92S511.37,208,510.21,195.61Zm24.53-2.28c-.85-9.13-4.81-13-10-12.53s-8.31,5-7.46,14.16,4.81,13,9.94,12.53S535.59,202.46,534.74,193.33Z" transform="translate(-43.54 -35.17)"/><path class="cls-6" d="M573.58,197.34c.59,6.38-3.7,12.34-13.86,13.28-5.34.5-10.84-.62-14.61-3.05l2.52-5.74a17.73,17.73,0,0,0,11.42,2.7c5-.47,7.79-3,7.46-6.47s-3-5.39-8.73-4.86l-3.46.32-.45-4.8,7.64-11-17.18,1.6-.55-5.89,25.77-2.4.44,4.7-8.17,11.77C569,187.74,573.05,191.67,573.58,197.34Z" transform="translate(-43.54 -35.17)"/></g></svg>